<?xml version="1.0" encoding="utf-8"?>
<!-- Generator: Adobe Illustrator 21.0.0, SVG Export Plug-In . SVG Version: 6.00 Build 0)  -->
<svg version="1.1" id="Lager_1" xmlns="http://www.w3.org/2000/svg" xmlns:xlink="http://www.w3.org/1999/xlink" x="0px" y="0px"
	 viewBox="0 0 24 24" style="enable-background:new 0 0 24 24;" xml:space="preserve">
<g>
	<path d="M18.9,3.7h-1.6V2.1h-1.1v1.6H7.7V2.1H6.7v1.6H5.1c-1.5,0-2.7,1.2-2.7,2.7v12.8c0,1.5,1.2,2.7,2.7,2.7h13.9
		c1.5,0,2.7-1.2,2.7-2.7V9.1V8V6.4C21.6,4.9,20.4,3.7,18.9,3.7z M20.5,19.2c0,0.9-0.7,1.6-1.6,1.6H5.1c-0.9,0-1.6-0.7-1.6-1.6V9.1
		h17.1V19.2z M20.5,8H3.5V6.4c0-0.9,0.7-1.6,1.6-1.6h1.6v1.1h1.1V4.8h8.5v1.1h1.1V4.8h1.6c0.9,0,1.6,0.7,1.6,1.6V8z"/>
	<path d="M10.9,14.4h2.1c0.6,0,1.1-0.5,1.1-1.1v-2.1c0-0.6-0.5-1.1-1.1-1.1h-2.1c-0.6,0-1.1,0.5-1.1,1.1v2.1
		C9.9,13.9,10.3,14.4,10.9,14.4z M10.9,11.2h2.1l0,2.1h-2.1C10.9,13.3,10.9,11.2,10.9,11.2z"/>
	<path d="M16.3,14.4h2.1c0.6,0,1.1-0.5,1.1-1.1v-2.1c0-0.6-0.5-1.1-1.1-1.1h-2.1c-0.6,0-1.1,0.5-1.1,1.1v2.1
		C15.2,13.9,15.7,14.4,16.3,14.4z M16.3,11.2h2.1l0,2.1h-2.1V11.2z"/>
	<path d="M5.6,19.7h2.1c0.6,0,1.1-0.5,1.1-1.1v-2.1c0-0.6-0.5-1.1-1.1-1.1H5.6c-0.6,0-1.1,0.5-1.1,1.1v2.1C4.5,19.3,5,19.7,5.6,19.7
		z M5.6,16.5h2.1l0,2.1H5.6V16.5z"/>
	<path d="M10.9,19.7h2.1c0.6,0,1.1-0.5,1.1-1.1v-2.1c0-0.6-0.5-1.1-1.1-1.1h-2.1c-0.6,0-1.1,0.5-1.1,1.1v2.1
		C9.9,19.3,10.3,19.7,10.9,19.7z M10.9,16.5h2.1l0,2.1h-2.1C10.9,18.7,10.9,16.5,10.9,16.5z"/>
	<path d="M16.3,19.7h2.1c0.6,0,1.1-0.5,1.1-1.1v-2.1c0-0.6-0.5-1.1-1.1-1.1h-2.1c-0.6,0-1.1,0.5-1.1,1.1v2.1
		C15.2,19.3,15.7,19.7,16.3,19.7z M16.3,16.5h2.1l0,2.1h-2.1V16.5z"/>
</g>
</svg>
