<?xml version="1.0" encoding="utf-8"?>
<!-- Generator: Adobe Illustrator 21.0.0, SVG Export Plug-In . SVG Version: 6.00 Build 0)  -->
<svg version="1.1" id="Lager_1" xmlns="http://www.w3.org/2000/svg" xmlns:xlink="http://www.w3.org/1999/xlink" x="0px" y="0px"
	 viewBox="0 0 32 32" style="enable-background:new 0 0 32 32;" xml:space="preserve">
<g>
	<g>
		<path d="M27.7,22.9h-2l-0.1-0.7c-0.1-1.2-1.1-2-2.3-2c-1.2,0-2.1,0.9-2.3,2l-0.1,0.7H10.1v-0.7c-0.1-1.2-1.1-2-2.3-2
			s-2.1,0.9-2.3,2l-0.1,0.7h-1c-2,0-3.6-1.6-3.6-3.6V8.8c0-2,1.6-3.6,3.6-3.6h20.9c1.6,0,3,1.1,3.5,2.6l2.3,7.9
			c0.1,0.3,0.1,0.7,0.1,1v2.6C31.4,21.3,29.7,22.9,27.7,22.9z M27,21.4h0.7c1.2,0,2.1-1,2.1-2.1v-2.6c0-0.2,0-0.4-0.1-0.6l-2.3-7.9
			c-0.3-0.9-1.1-1.5-2.1-1.5H4.5c-1.2,0-2.1,1-2.1,2.1v10.5c0,1.1,0.8,2,1.8,2.1c0.5-1.6,1.9-2.7,3.6-2.7s3.1,1.1,3.6,2.7h8.4
			c0.5-1.6,1.9-2.7,3.6-2.7S26.5,19.8,27,21.4z"/>
	</g>
	<g>
		<rect x="1.6" y="15.3" width="29" height="1.5"/>
	</g>
	<g>
		<rect x="19.6" y="5.8" width="1.5" height="10.3"/>
	</g>
	<g>
		<rect x="10.6" y="5.8" width="1.5" height="10.3"/>
	</g>
	<g>
		<path d="M7.8,26.3c-2.1,0-3.8-1.7-3.8-3.8c0-0.1,0-0.2,0-0.3c0.2-2,1.8-3.4,3.8-3.4c1.9,0,3.5,1.4,3.7,3.4c0,0.2,0,0.3,0,0.4
			C11.6,24.5,9.9,26.3,7.8,26.3z M7.8,20.1c-1.2,0-2.1,0.9-2.3,2v0.1v0.1c0,1.3,1,2.3,2.3,2.3s2.3-1,2.3-2.3v-0.1v-0.1
			C9.9,21,9,20.1,7.8,20.1z"/>
	</g>
	<g>
		<path d="M23.4,26.3c-2.1,0-3.8-1.7-3.8-3.8c0-0.1,0-0.2,0-0.3c0.2-2,1.8-3.4,3.8-3.4c1.9,0,3.5,1.4,3.7,3.4c0,0.2,0,0.3,0,0.4
			C27.2,24.5,25.5,26.3,23.4,26.3z M23.4,20.1c-1.2,0-2.1,0.9-2.3,2v0.1v0.1c0,1.3,1,2.3,2.3,2.3s2.3-1,2.3-2.3v-0.1v-0.1
			C25.5,21,24.5,20.1,23.4,20.1z"/>
	</g>
</g>
</svg>
