<?xml version="1.0" encoding="utf-8"?>
<!-- Generator: Adobe Illustrator 21.0.0, SVG Export Plug-In . SVG Version: 6.00 Build 0)  -->
<svg version="1.1" id="Lager_1" xmlns="http://www.w3.org/2000/svg" xmlns:xlink="http://www.w3.org/1999/xlink" x="0px" y="0px"
	 viewBox="0 0 36 36" style="enable-background:new 0 0 36 36;" xml:space="preserve">
<g>
	<path d="M24,23c-0.2,0-0.4-0.1-0.6-0.2l-6-4C17.2,18.6,17,18.3,17,18V8c0-0.6,0.4-1,1-1s1,0.4,1,1v9.5l5.6,3.7
		c0.5,0.3,0.6,0.9,0.3,1.4C24.6,22.8,24.3,23,24,23z"/>
	<path d="M18,34C9.2,34,2,26.8,2,18S9.2,2,18,2s16,7.2,16,16S26.8,34,18,34z M18,4C10.3,4,4,10.3,4,18s6.3,14,14,14s14-6.3,14-14
		S25.7,4,18,4z"/>
</g>
</svg>
