<?xml version="1.0" encoding="utf-8"?>
<!-- Generator: Adobe Illustrator 21.0.0, SVG Export Plug-In . SVG Version: 6.00 Build 0)  -->
<svg version="1.1" id="Lager_1" xmlns="http://www.w3.org/2000/svg" xmlns:xlink="http://www.w3.org/1999/xlink" x="0px" y="0px"
	 viewBox="0 0 56 56" style="enable-background:new 0 0 56 56;" xml:space="preserve">
<style type="text/css">
	.st0{fill:none;stroke:#000000;stroke-width:2.3;stroke-linecap:round;stroke-miterlimit:10;}
</style>
<g>
	<path class="st0" d="M42.2,40.1c0.1,2.6-1.8,4.6-4.3,4.6H18.1c-2.5,0-4.4-2.1-4.3-4.6l0.8-19.2c0.1-2.6,2.2-4.6,4.7-4.6h17.4
		c2.5,0,4.6,2.1,4.7,4.6L42.2,40.1z"/>
	<path class="st0" d="M36.6,30.9c0,1.1-0.9,2-2,2H21.4c-1.1,0-2-0.9-2-2v-7.5c0-1.1,0.9-2,2-2h13.2c1.1,0,2,0.9,2,2V30.9z"/>
	<g>
		<line class="st0" x1="18.6" y1="44.7" x2="11.1" y2="51.1"/>
		<line class="st0" x1="37.4" y1="44.7" x2="44.9" y2="51.1"/>
	</g>
	<line class="st0" x1="12.5" y1="49.9" x2="43.5" y2="49.9"/>
	<path class="st0" d="M10.6,44.4C7.1,40.2,5,34.8,5,28.8C5,15.7,15.3,5.1,28,5.1c12.7,0,23,10.6,23,23.8c0,6-2.1,11.5-5.7,15.6"/>
</g>
</svg>
