<?xml version="1.0" encoding="utf-8"?>
<!-- Generator: Adobe Illustrator 21.0.0, SVG Export Plug-In . SVG Version: 6.00 Build 0)  -->
<svg version="1.1" id="Lager_1" xmlns="http://www.w3.org/2000/svg" xmlns:xlink="http://www.w3.org/1999/xlink" x="0px" y="0px"
	 viewBox="0 0 48 48" style="enable-background:new 0 0 48 48;" xml:space="preserve">
<style type="text/css">
	.st0{fill:none;stroke:#000000;stroke-width:2;stroke-linecap:round;stroke-linejoin:round;stroke-miterlimit:10;}
</style>
<g>
	<path class="st0" d="M2,11.1v21.1h40.9c0,0,3.2-2.5,3.4-3.8c0.5-4.6-4.9-12.7-8.9-15c-2.5-1.4-7.3-2.3-11.5-2.3
		C21.6,11.1,2,11.1,2,11.1z"/>
	<polygon class="st0" points="14.6,3.2 8.7,6.6 14.6,9.9 20.4,6.6 	"/>
	<line class="st0" x1="1.1" y1="42.6" x2="47.1" y2="42.6"/>
	<line class="st0" x1="2" y1="19.4" x2="25.1" y2="19.4"/>
	<path class="st0" d="M33.1,19.4c0,0,6.6,0.4,9.3-0.9"/>
	<line class="st0" x1="2.9" y1="37.2" x2="7.3" y2="37.2"/>
	<line class="st0" x1="15.3" y1="37.2" x2="19.8" y2="37.2"/>
	<line class="st0" x1="27.8" y1="37.2" x2="32.2" y2="37.2"/>
	<line class="st0" x1="40.3" y1="37.2" x2="44.7" y2="37.2"/>
</g>
</svg>
